<svg width="227" height="28" viewBox="0 0 227 28" fill="none" xmlns="http://www.w3.org/2000/svg">
<path d="M0 14C0 6.26801 6.49793 0 14.5135 0L212.356 0C220.371 0 226.869 6.26801 226.869 14C226.869 21.732 220.371 28 212.356 28H14.5135C6.49793 28 0 21.732 0 14Z" fill="#6D5149"/>
<path d="M24.9248 8.17894H38.0677C38.4725 8.17894 38.8006 7.8624 38.8006 7.47198C38.8006 7.08155 38.4725 6.76501 38.0677 6.76501H24.9248C24.52 6.76501 24.1919 7.08155 24.1919 7.47198C24.1919 7.8624 24.52 8.17894 24.9248 8.17894Z" fill="white"/>
<path d="M24.9248 11.1952H38.0677C38.4725 11.1952 38.8006 10.8787 38.8006 10.4883C38.8006 10.0979 38.4725 9.78132 38.0677 9.78132H24.9248C24.52 9.78132 24.1919 10.0979 24.1919 10.4883C24.1919 10.8787 24.52 11.1952 24.9248 11.1952Z" fill="white"/>
<path d="M31.8976 12.7977H24.9248C24.52 12.7977 24.1919 13.1142 24.1919 13.5046C24.1919 13.8951 24.52 14.2116 24.9248 14.2116H31.8976C32.3023 14.2116 32.6304 13.8951 32.6304 13.5046C32.6304 13.1142 32.3023 12.7977 31.8976 12.7977Z" fill="white"/>
<path d="M43.4997 23.5461L41.5836 19.8865L42.325 19.6011C42.5197 19.5261 42.6831 19.3093 42.6969 19.1075L42.7601 18.1898C42.7707 18.0361 42.8514 17.7963 42.9365 17.666L43.4444 16.8879C43.5562 16.7168 43.5562 16.4487 43.4445 16.2776L42.9365 15.4994C42.8515 15.3692 42.7707 15.1293 42.7601 14.9756L42.697 14.058C42.6851 13.8852 42.5635 13.7018 42.4067 13.6054V5.09813C42.4067 4.31847 41.7491 3.68421 40.9409 3.68421H22.8541C22.0459 3.68421 21.3884 4.31847 21.3884 5.09813V17.2095C21.3884 17.9891 22.0459 18.6233 22.8541 18.6233H34.3829L34.4162 19.1075C34.4301 19.3093 34.5934 19.5261 34.7882 19.6011L35.4843 19.8691L33.559 23.5461C33.4997 23.6593 33.5156 23.7275 33.5394 23.7648C33.5544 23.7884 33.5913 23.8279 33.669 23.8279C33.7079 23.8279 33.7526 23.8178 33.802 23.7979L35.3792 23.161C35.4179 23.1453 35.4641 23.137 35.5126 23.137C35.6284 23.137 35.7465 23.1833 35.8133 23.2547L36.5709 24.0649C36.6341 24.1325 36.7123 24.1697 36.791 24.1697C36.8949 24.1697 36.9881 24.1049 37.0402 23.9965L38.5245 20.908C38.5277 20.908 38.5309 20.908 38.5341 20.9079L40.0185 23.9965C40.0705 24.105 40.1637 24.1697 40.2677 24.1697C40.3463 24.1697 40.4245 24.1325 40.4877 24.0649L41.2452 23.2547C41.3121 23.1833 41.4302 23.137 41.546 23.137C41.5944 23.137 41.6406 23.1453 41.6794 23.161L43.2565 23.7979C43.306 23.8178 43.3507 23.8279 43.3896 23.8279C43.4673 23.8279 43.5041 23.7883 43.5192 23.7648C43.543 23.7275 43.5589 23.6593 43.4997 23.5461ZM22.8541 5.09813H40.9408L40.9409 12.8571L40.368 12.1922C40.2634 12.0708 40.0718 11.9893 39.8914 11.9893C39.8475 11.9893 39.8055 11.9941 39.7664 12.0037L38.8418 12.2307C38.6945 12.2669 38.4186 12.2669 38.2713 12.2307L37.3467 12.0037C37.3076 11.9941 37.2656 11.9893 37.2217 11.9893C37.0413 11.9893 36.8498 12.0708 36.7452 12.1922L36.1355 12.8997C36.0336 13.0181 35.8222 13.1663 35.674 13.2234L34.7883 13.5644C34.5935 13.6394 34.4301 13.8562 34.4162 14.058L34.3531 14.9756C34.3426 15.1294 34.2618 15.3692 34.1767 15.4994L33.6688 16.2776C33.5571 16.4487 33.5571 16.7168 33.6688 16.8879L33.8787 17.2094H22.8541V5.09813ZM38.5565 19.5886C36.8355 19.5886 35.4404 18.2429 35.4404 16.5827C35.4404 14.9226 36.8355 13.5769 38.5565 13.5769C40.2775 13.5769 41.6727 14.9226 41.6727 16.5827C41.6728 18.2429 40.2775 19.5886 38.5565 19.5886Z" fill="white"/>
<path d="M63.6762 19.2463C62.8716 19.2463 62.1281 19.1186 61.4457 18.8632C60.7633 18.5979 60.1726 18.2295 59.6735 17.7579C59.1745 17.2863 58.7823 16.7312 58.4972 16.0926C58.2222 15.454 58.0847 14.7565 58.0847 14C58.0847 13.2435 58.2222 12.546 58.4972 11.9074C58.7823 11.2688 59.1745 10.7137 59.6735 10.2421C60.1828 9.77053 60.7786 9.40702 61.461 9.15158C62.1434 8.88632 62.8869 8.75368 63.6915 8.75368C64.4655 8.75368 65.1938 8.8814 65.8761 9.13684C66.5585 9.38246 67.134 9.75579 67.6025 10.2568L66.8845 10.9495C66.4465 10.5172 65.9627 10.2077 65.4331 10.0211C64.9035 9.82456 64.3331 9.72631 63.722 9.72631C63.0804 9.72631 62.4846 9.83439 61.9346 10.0505C61.3846 10.2568 60.9059 10.5565 60.4985 10.9495C60.0911 11.3326 59.7703 11.7846 59.536 12.3053C59.312 12.8161 59.1999 13.3811 59.1999 14C59.1999 14.6189 59.312 15.1888 59.536 15.7095C59.7703 16.2204 60.0911 16.6723 60.4985 17.0653C60.9059 17.4484 61.3846 17.7481 61.9346 17.9642C62.4846 18.1705 63.0804 18.2737 63.722 18.2737C64.3331 18.2737 64.9035 18.1754 65.4331 17.9789C65.9627 17.7825 66.4465 17.4681 66.8845 17.0358L67.6025 17.7284C67.134 18.2295 66.5585 18.6077 65.8761 18.8632C65.1938 19.1186 64.4604 19.2463 63.6762 19.2463Z" fill="white"/>
<path d="M72.8321 19.2316C71.997 19.2316 71.2637 19.0646 70.6322 18.7305C70.0007 18.3867 69.5068 17.92 69.1503 17.3305C68.7938 16.7312 68.6156 16.0484 68.6156 15.2821C68.6156 14.5158 68.7836 13.8379 69.1197 13.2484C69.466 12.6589 69.9345 12.1972 70.5252 11.8632C71.1262 11.5193 71.7984 11.3474 72.5419 11.3474C73.2956 11.3474 73.9627 11.5144 74.5432 11.8484C75.1339 12.1726 75.5973 12.6344 75.9335 13.2337C76.2696 13.8232 76.4376 14.506 76.4376 15.2821C76.4376 15.3312 76.4325 15.3853 76.4223 15.4442C76.4223 15.4933 76.4223 15.5474 76.4223 15.6063H69.4406V14.8253H75.8418L75.414 15.1347C75.414 14.5747 75.2867 14.0786 75.0321 13.6463C74.7876 13.2042 74.4515 12.8603 74.0238 12.6147C73.596 12.3691 73.102 12.2463 72.5419 12.2463C71.9919 12.2463 71.4979 12.3691 71.06 12.6147C70.622 12.8603 70.2808 13.2042 70.0364 13.6463C69.7919 14.0884 69.6697 14.5944 69.6697 15.1642V15.3263C69.6697 15.9158 69.8021 16.4365 70.0669 16.8884C70.3419 17.3305 70.7188 17.6793 71.1975 17.9347C71.6863 18.1804 72.2414 18.3032 72.8627 18.3032C73.3516 18.3032 73.8048 18.2196 74.2224 18.0526C74.6501 17.8856 75.0168 17.6302 75.3224 17.2863L75.9335 17.9642C75.577 18.3768 75.1288 18.6912 74.589 18.9074C74.0594 19.1235 73.4738 19.2316 72.8321 19.2316Z" fill="white"/>
<path d="M78.6454 19.1579V11.4211H79.6843V13.5284L79.5773 13.16C79.8014 12.5705 80.1783 12.1235 80.7079 11.8189C81.2375 11.5046 81.8944 11.3474 82.6787 11.3474V12.3642C82.6379 12.3642 82.5972 12.3642 82.5564 12.3642C82.5157 12.3544 82.475 12.3495 82.4342 12.3495C81.5889 12.3495 80.9269 12.6 80.4482 13.1011C79.9695 13.5923 79.7301 14.2947 79.7301 15.2084V19.1579H78.6454Z" fill="white"/>
<path d="M87.5371 19.2316C86.7834 19.2316 86.2029 19.0351 85.7955 18.6421C85.3881 18.2491 85.1844 17.694 85.1844 16.9768V9.71158H86.2691V16.9179C86.2691 17.3698 86.3862 17.7186 86.6205 17.9642C86.8649 18.2098 87.2112 18.3326 87.6593 18.3326C88.138 18.3326 88.5352 18.2 88.851 17.9347L89.2329 18.6863C89.019 18.873 88.7593 19.0105 88.4538 19.0989C88.1584 19.1874 87.8528 19.2316 87.5371 19.2316ZM83.7483 12.2905V11.4211H88.7135V12.2905H83.7483Z" fill="white"/>
<path d="M91.2075 19.1579V11.4211H92.2922V19.1579H91.2075ZM91.7575 9.71158C91.5334 9.71158 91.345 9.63789 91.1922 9.49053C91.0395 9.34316 90.9631 9.16632 90.9631 8.96C90.9631 8.75368 91.0395 8.58175 91.1922 8.44421C91.345 8.29684 91.5334 8.22316 91.7575 8.22316C91.9816 8.22316 92.17 8.29193 92.3228 8.42947C92.4755 8.56702 92.5519 8.73895 92.5519 8.94526C92.5519 9.1614 92.4755 9.34316 92.3228 9.49053C92.1802 9.63789 91.9917 9.71158 91.7575 9.71158Z" fill="white"/>
<path d="M95.4937 19.1579V10.4484C95.4937 9.7607 95.7024 9.20561 96.12 8.78316C96.5376 8.3607 97.1385 8.14947 97.9227 8.14947C98.2283 8.14947 98.5237 8.18877 98.8088 8.26737C99.094 8.34596 99.3334 8.46877 99.5269 8.63579L99.1602 9.41684C99.0075 9.28912 98.8292 9.19579 98.6255 9.13684C98.4218 9.06807 98.2028 9.03368 97.9686 9.03368C97.5103 9.03368 97.1589 9.15649 96.9144 9.4021C96.67 9.64772 96.5478 10.0112 96.5478 10.4926V11.6716L96.5783 12.1579V19.1579H95.4937ZM94.0576 12.2905V11.4211H99.0227V12.2905H94.0576ZM100.489 19.1579V11.4211H101.574V19.1579H100.489ZM101.039 9.71158C100.815 9.71158 100.627 9.63789 100.474 9.49053C100.321 9.34316 100.245 9.16632 100.245 8.96C100.245 8.75368 100.321 8.58175 100.474 8.44421C100.627 8.29684 100.815 8.22316 101.039 8.22316C101.263 8.22316 101.452 8.29193 101.605 8.42947C101.757 8.56702 101.834 8.73895 101.834 8.94526C101.834 9.1614 101.757 9.34316 101.605 9.49053C101.462 9.63789 101.274 9.71158 101.039 9.71158Z" fill="white"/>
<path d="M108.027 19.2316C107.192 19.2316 106.458 19.0646 105.827 18.7305C105.195 18.3867 104.701 17.92 104.345 17.3305C103.989 16.7312 103.81 16.0484 103.81 15.2821C103.81 14.5158 103.978 13.8379 104.314 13.2484C104.661 12.6589 105.129 12.1972 105.72 11.8632C106.321 11.5193 106.993 11.3474 107.737 11.3474C108.49 11.3474 109.157 11.5144 109.738 11.8484C110.329 12.1726 110.792 12.6344 111.128 13.2337C111.464 13.8232 111.632 14.506 111.632 15.2821C111.632 15.3312 111.627 15.3853 111.617 15.4442C111.617 15.4933 111.617 15.5474 111.617 15.6063H104.635V14.8253H111.036L110.609 15.1347C110.609 14.5747 110.481 14.0786 110.227 13.6463C109.982 13.2042 109.646 12.8603 109.218 12.6147C108.791 12.3691 108.297 12.2463 107.737 12.2463C107.187 12.2463 106.693 12.3691 106.255 12.6147C105.817 12.8603 105.476 13.2042 105.231 13.6463C104.987 14.0884 104.864 14.5944 104.864 15.1642V15.3263C104.864 15.9158 104.997 16.4365 105.262 16.8884C105.537 17.3305 105.913 17.6793 106.392 17.9347C106.881 18.1804 107.436 18.3032 108.057 18.3032C108.546 18.3032 108.999 18.2196 109.417 18.0526C109.845 17.8856 110.212 17.6302 110.517 17.2863L111.128 17.9642C110.772 18.3768 110.324 18.6912 109.784 18.9074C109.254 19.1235 108.668 19.2316 108.027 19.2316Z" fill="white"/>
<path d="M117.033 19.2316C116.269 19.2316 115.582 19.0646 114.971 18.7305C114.37 18.3965 113.896 17.9347 113.55 17.3453C113.204 16.746 113.03 16.0582 113.03 15.2821C113.03 14.4961 113.204 13.8084 113.55 13.2189C113.896 12.6295 114.37 12.1726 114.971 11.8484C115.582 11.5144 116.269 11.3474 117.033 11.3474C117.736 11.3474 118.362 11.4996 118.912 11.8042C119.472 12.1088 119.915 12.5558 120.241 13.1453C120.577 13.7249 120.746 14.4372 120.746 15.2821C120.746 16.1172 120.583 16.8295 120.257 17.4189C119.931 18.0084 119.488 18.4604 118.928 18.7747C118.378 19.0793 117.746 19.2316 117.033 19.2316ZM117.109 18.3032C117.68 18.3032 118.189 18.1804 118.637 17.9347C119.096 17.6793 119.452 17.3256 119.707 16.8737C119.971 16.4119 120.104 15.8814 120.104 15.2821C120.104 14.673 119.971 14.1425 119.707 13.6905C119.452 13.2386 119.096 12.8898 118.637 12.6442C118.189 12.3888 117.68 12.2611 117.109 12.2611C116.549 12.2611 116.045 12.3888 115.597 12.6442C115.149 12.8898 114.792 13.2386 114.528 13.6905C114.263 14.1425 114.13 14.673 114.13 15.2821C114.13 15.8814 114.263 16.4119 114.528 16.8737C114.792 17.3256 115.149 17.6793 115.597 17.9347C116.045 18.1804 116.549 18.3032 117.109 18.3032ZM120.134 19.1579V16.8295L120.241 15.2674L120.089 13.7053V8.22316H121.173V19.1579H120.134Z" fill="white"/>
<path d="M129.43 13.4547H135.083V14.3832H129.43V13.4547ZM129.552 18.2147H135.984V19.1579H128.422V8.8421H135.755V9.78526H129.552V18.2147Z" fill="white"/>
<path d="M136.966 19.1579L140.358 14.9137L140.343 15.4295L137.119 11.4211H138.341L140.984 14.7368L140.526 14.7221L143.169 11.4211H144.361L141.106 15.4737L141.122 14.9137L144.544 19.1579H143.306L140.511 15.6211L140.938 15.68L138.188 19.1579H136.966Z" fill="white"/>
<path d="M149.396 19.2316C148.602 19.2316 147.889 19.0646 147.258 18.7305C146.636 18.3867 146.147 17.92 145.791 17.3305C145.434 16.7312 145.256 16.0484 145.256 15.2821C145.256 14.506 145.434 13.8232 145.791 13.2337C146.147 12.6442 146.636 12.1825 147.258 11.8484C147.889 11.5144 148.602 11.3474 149.396 11.3474C150.079 11.3474 150.695 11.4751 151.245 11.7305C151.795 11.986 152.228 12.3691 152.544 12.88L151.734 13.4105C151.459 13.0175 151.118 12.7277 150.71 12.5411C150.303 12.3544 149.86 12.2611 149.381 12.2611C148.811 12.2611 148.296 12.3888 147.838 12.6442C147.38 12.8898 147.018 13.2386 146.753 13.6905C146.489 14.1425 146.356 14.673 146.356 15.2821C146.356 15.8912 146.489 16.4218 146.753 16.8737C147.018 17.3256 147.38 17.6793 147.838 17.9347C148.296 18.1804 148.811 18.3032 149.381 18.3032C149.86 18.3032 150.303 18.2098 150.71 18.0232C151.118 17.8365 151.459 17.5516 151.734 17.1684L152.544 17.6989C152.228 18.2 151.795 18.5832 151.245 18.8484C150.695 19.1039 150.079 19.2316 149.396 19.2316Z" fill="white"/>
<path d="M157.947 19.2316C157.112 19.2316 156.378 19.0646 155.747 18.7305C155.116 18.3867 154.622 17.92 154.265 17.3305C153.909 16.7312 153.73 16.0484 153.73 15.2821C153.73 14.5158 153.898 13.8379 154.235 13.2484C154.581 12.6589 155.049 12.1972 155.64 11.8632C156.241 11.5193 156.913 11.3474 157.657 11.3474C158.41 11.3474 159.077 11.5144 159.658 11.8484C160.249 12.1726 160.712 12.6344 161.048 13.2337C161.384 13.8232 161.552 14.506 161.552 15.2821C161.552 15.3312 161.547 15.3853 161.537 15.4442C161.537 15.4933 161.537 15.5474 161.537 15.6063H154.555V14.8253H160.957L160.529 15.1347C160.529 14.5747 160.402 14.0786 160.147 13.6463C159.902 13.2042 159.566 12.8603 159.139 12.6147C158.711 12.3691 158.217 12.2463 157.657 12.2463C157.107 12.2463 156.613 12.3691 156.175 12.6147C155.737 12.8603 155.396 13.2042 155.151 13.6463C154.907 14.0884 154.785 14.5944 154.785 15.1642V15.3263C154.785 15.9158 154.917 16.4365 155.182 16.8884C155.457 17.3305 155.834 17.6793 156.312 17.9347C156.801 18.1804 157.356 18.3032 157.977 18.3032C158.466 18.3032 158.92 18.2196 159.337 18.0526C159.765 17.8856 160.132 17.6302 160.437 17.2863L161.048 17.9642C160.692 18.3768 160.244 18.6912 159.704 18.9074C159.174 19.1235 158.589 19.2316 157.947 19.2316Z" fill="white"/>
<path d="M163.76 19.1579V8.22316H164.845V19.1579H163.76Z" fill="white"/>
<path d="M167.863 19.1579V8.22316H168.948V19.1579H167.863Z" fill="white"/>
<path d="M175.373 19.2316C174.538 19.2316 173.804 19.0646 173.173 18.7305C172.541 18.3867 172.047 17.92 171.691 17.3305C171.334 16.7312 171.156 16.0484 171.156 15.2821C171.156 14.5158 171.324 13.8379 171.66 13.2484C172.007 12.6589 172.475 12.1972 173.066 11.8632C173.667 11.5193 174.339 11.3474 175.082 11.3474C175.836 11.3474 176.503 11.5144 177.084 11.8484C177.675 12.1726 178.138 12.6344 178.474 13.2337C178.81 13.8232 178.978 14.506 178.978 15.2821C178.978 15.3312 178.973 15.3853 178.963 15.4442C178.963 15.4933 178.963 15.5474 178.963 15.6063H171.981V14.8253H178.382L177.955 15.1347C177.955 14.5747 177.827 14.0786 177.573 13.6463C177.328 13.2042 176.992 12.8603 176.564 12.6147C176.137 12.3691 175.643 12.2463 175.082 12.2463C174.532 12.2463 174.038 12.3691 173.601 12.6147C173.163 12.8603 172.821 13.2042 172.577 13.6463C172.333 14.0884 172.21 14.5944 172.21 15.1642V15.3263C172.21 15.9158 172.343 16.4365 172.608 16.8884C172.883 17.3305 173.259 17.6793 173.738 17.9347C174.227 18.1804 174.782 18.3032 175.403 18.3032C175.892 18.3032 176.345 18.2196 176.763 18.0526C177.191 17.8856 177.557 17.6302 177.863 17.2863L178.474 17.9642C178.118 18.3768 177.669 18.6912 177.13 18.9074C176.6 19.1235 176.014 19.2316 175.373 19.2316Z" fill="white"/>
<path d="M185.28 11.3474C185.932 11.3474 186.503 11.4702 186.991 11.7158C187.49 11.9516 187.878 12.3151 188.153 12.8063C188.438 13.2975 188.58 13.9165 188.58 14.6632V19.1579H187.496V14.7663C187.496 13.9509 187.282 13.3368 186.854 12.9242C186.436 12.5018 185.846 12.2905 185.082 12.2905C184.511 12.2905 184.012 12.4035 183.585 12.6295C183.167 12.8456 182.841 13.1649 182.607 13.5874C182.383 14 182.271 14.5011 182.271 15.0905V19.1579H181.186V11.4211H182.225V13.5432L182.057 13.1453C182.311 12.5853 182.719 12.1481 183.279 11.8337C183.839 11.5095 184.506 11.3474 185.28 11.3474Z" fill="white"/>
<path d="M194.841 19.2316C194.046 19.2316 193.333 19.0646 192.702 18.7305C192.081 18.3867 191.592 17.92 191.235 17.3305C190.879 16.7312 190.7 16.0484 190.7 15.2821C190.7 14.506 190.879 13.8232 191.235 13.2337C191.592 12.6442 192.081 12.1825 192.702 11.8484C193.333 11.5144 194.046 11.3474 194.841 11.3474C195.523 11.3474 196.139 11.4751 196.689 11.7305C197.239 11.986 197.672 12.3691 197.988 12.88L197.178 13.4105C196.903 13.0175 196.562 12.7277 196.155 12.5411C195.747 12.3544 195.304 12.2611 194.825 12.2611C194.255 12.2611 193.741 12.3888 193.282 12.6442C192.824 12.8898 192.462 13.2386 192.198 13.6905C191.933 14.1425 191.8 14.673 191.8 15.2821C191.8 15.8912 191.933 16.4218 192.198 16.8737C192.462 17.3256 192.824 17.6793 193.282 17.9347C193.741 18.1804 194.255 18.3032 194.825 18.3032C195.304 18.3032 195.747 18.2098 196.155 18.0232C196.562 17.8365 196.903 17.5516 197.178 17.1684L197.988 17.6989C197.672 18.2 197.239 18.5832 196.689 18.8484C196.139 19.1039 195.523 19.2316 194.841 19.2316Z" fill="white"/>
<path d="M203.391 19.2316C202.556 19.2316 201.823 19.0646 201.191 18.7305C200.56 18.3867 200.066 17.92 199.709 17.3305C199.353 16.7312 199.175 16.0484 199.175 15.2821C199.175 14.5158 199.343 13.8379 199.679 13.2484C200.025 12.6589 200.494 12.1972 201.084 11.8632C201.685 11.5193 202.357 11.3474 203.101 11.3474C203.855 11.3474 204.522 11.5144 205.102 11.8484C205.693 12.1726 206.156 12.6344 206.493 13.2337C206.829 13.8232 206.997 14.506 206.997 15.2821C206.997 15.3312 206.992 15.3853 206.981 15.4442C206.981 15.4933 206.981 15.5474 206.981 15.6063H200V14.8253H206.401L205.973 15.1347C205.973 14.5747 205.846 14.0786 205.591 13.6463C205.347 13.2042 205.011 12.8603 204.583 12.6147C204.155 12.3691 203.661 12.2463 203.101 12.2463C202.551 12.2463 202.057 12.3691 201.619 12.6147C201.181 12.8603 200.84 13.2042 200.595 13.6463C200.351 14.0884 200.229 14.5944 200.229 15.1642V15.3263C200.229 15.9158 200.361 16.4365 200.626 16.8884C200.901 17.3305 201.278 17.6793 201.757 17.9347C202.245 18.1804 202.801 18.3032 203.422 18.3032C203.911 18.3032 204.364 18.2196 204.781 18.0526C205.209 17.8856 205.576 17.6302 205.881 17.2863L206.493 17.9642C206.136 18.3768 205.688 18.6912 205.148 18.9074C204.619 19.1235 204.033 19.2316 203.391 19.2316Z" fill="white"/>
</svg>
